<svg xmlns="http://www.w3.org/2000/svg" width="231.022" height="182.529" viewBox="0 0 231.022 182.529"><defs><style>.a{fill:#a0002a;}.b{fill:#6b6d70;}.c{fill:#1a1818;}</style></defs><g transform="translate(-43.988 -28.747)"><rect class="a" width="231.022" height="5.25" transform="translate(43.988 106.683)"/><path class="b" d="M67.1,193.475a3.844,3.844,0,0,0-3.611-2.277,3.321,3.321,0,0,0-3.47,3.249c0,1.8,1.859,2.638,3.276,3.277l1.389.611c2.721,1.194,5.026,2.555,5.026,5.888A6.608,6.608,0,0,1,56.6,205.277l2.277-.638a4.313,4.313,0,0,0,4.193,3.888,4.209,4.209,0,0,0,4.3-4.083c0-2.443-1.916-3.276-3.86-4.165l-1.278-.555c-2.443-1.112-4.554-2.361-4.554-5.361,0-3.249,2.75-5.332,5.86-5.332a6.009,6.009,0,0,1,5.415,3.25Z"/><path class="b" d="M95.475,189.393h3.138l-9.831,9.748,10.164,11.191H95.725l-8.581-9.608-.584.583v9.025H84.227V189.393H86.56v8.969Z"/><path class="b" d="M114.69,210.332h-2.333V189.393h2.333Z"/><path class="b" d="M130.185,188.5l16.33,17.107V189.393h2.333v21.883L132.519,194.2v16.135h-2.334Z"/><path class="b" d="M180.282,193.975A8.96,8.96,0,0,0,173.9,191.2a8.667,8.667,0,0,0,.055,17.329,9.167,9.167,0,0,0,6.332-2.777v2.888a10.785,10.785,0,0,1-6.248,2.055,10.831,10.831,0,1,1,0-21.662,10.108,10.108,0,0,1,6.248,2.056Z"/><path class="b" d="M198.47,204.389l-2.528,5.943h-2.554l9.664-21.939,9.414,21.939h-2.582l-2.471-5.943ZM203,193.836l-3.582,8.387h7.08Z"/><path class="b" d="M228.183,210.332h-2.332V189.393h3.027c3.971,0,7.664,1.055,7.664,5.776a5.47,5.47,0,0,1-5.248,5.776l6.664,9.387H235.1l-6.332-9.192h-.584Zm0-11.247h.722c2.639,0,5.305-.5,5.305-3.749,0-3.443-2.527-3.777-5.332-3.777h-.7Z"/><path class="b" d="M252.009,189.393h10.859v2.166h-8.525v6.22h8.275v2.166h-8.275v8.221h8.525v2.166H252.009Z"/><path class="c" d="M215.3,54.508c-1.492-2.816-4.459-4.029-7.254-4.708-8.658-1.45-17.83.77-24.3,8.1a8.98,8.98,0,0,0-1.539,8.953,4.676,4.676,0,0,0,5.385,2.127c4.412-2,2.886-6.636,2.935-10.5.485-2.652,1.252-4.36,3.5-5.517a9.289,9.289,0,0,1,8.03-.571c3.58,1.312,3.58,3.152,3.691,4.813l.051,8.833c-9.033,4.626-23.344,6.753-24.444,19.644a8.938,8.938,0,0,0,.364,2.477,12.7,12.7,0,0,1-3.793,2.146c-2.455.762-6.575.264-7.377-1.834-.8-1.26-.438-2.775-.578-4.362l.052-32.186,12.2.006V49.217h-12.2l.088-11.909h-1.728C165.257,42.1,160.5,48.13,154.769,50.5v1.415h4.816V84.446a10.979,10.979,0,0,0,1.17,5.716,11.45,11.45,0,0,0,9.377,5.282c5.073.35,9.252-1.7,12.69-4.805a10.41,10.41,0,0,0,5.2,4.337c6.861,1.939,12.97-.947,17.675-5.482,1.022,4.623,6.358,6.413,10.016,5.839l.162-37.916A6.553,6.553,0,0,0,215.3,54.508ZM203.519,88.173c-1.635,1.626-4.612,4.236-8.8,2.326-2.227-1.064-3.18-2.276-3.727-5.751-.191-3.794.6-6.141,2.545-8.519,3.522-3.706,8.279-5.482,12.32-7.251C206.067,75.335,206.388,84.886,203.519,88.173Z"/><path class="c" d="M134.94,91.513"/><path class="c" d="M149.481,95.178V28.747h-1.57s-4.014,4.269-5.332,5.52a45.608,45.608,0,0,1-3.771,3V78.855c-3.179,3.722-9.756,7.23-16.62,8.782-4.966,1.473-11.6-.425-14.021-3.739-3.328-3.583-4.354-7.792-3.686-15.706h26.977A16.639,16.639,0,0,0,128.007,57.4a18.012,18.012,0,0,0-11.02-7.38c-7.277-1.558-12.148.487-17.082,5.8-5.554,7.026-8.33,16.893-4.974,26.022C97.11,88.009,103.4,94.2,110.218,95.04c10.233,2.08,22.387-4.365,28.59-12v1.63l0,.176A10.685,10.685,0,0,0,149.483,95.55ZM107.757,54.59c3.246-4.38,9.16-4.453,11.258.808,1.64,2.828,1.793,6.838,1.793,10.123l-16.278.049A18.22,18.22,0,0,1,107.757,54.59Z"/><path class="c" d="M134.94,91.513"/><path class="a" d="M186.981,120.632c3.442-.05,4.672-.018,4.672-.018,5.875,0,11.2.238,16.916,2.587,8.924,3.756,14.719,13.409,14.719,24.92,0,9.317-4,17.071-10.572,21.536-4.776,3.205-10.574,4.067-18.012,4.067H177.565V124.388C180.345,124.063,183.925,122.352,186.981,120.632ZM196.194,172c9.867,0,14.959-7.438,14.959-22.078,0-18.088-5.8-27.349-17.539-27.349-1.564,0-3.215.156-5.013.238v37.916C188.6,168.011,189.308,172,196.194,172Z"/><path class="a" d="M160.005,122.823c-9.169-4.28-20.272-.576-25.892,7.459a12.771,12.771,0,0,0-5.825-7.459c-9.432-4.4-19.014-.328-23.963,6.018l.115-8.027-1.533.032a41.443,41.443,0,0,1-9.517,3.688l-.082,49.175c7.09.079,10.08-2.985,11-7.145a30.915,30.915,0,0,0,.124-3.581l-.047-4.113V138.377a16.74,16.74,0,0,1,.463-4.822c.773-3.75,6.324-8.614,10.224-8.379,1.981.117,9.194,1.45,9.135,9.313l.252,11.526-.006,16.93a31.429,31.429,0,0,0,.117,3.578c.926,4.16,3.891,7.242,10.971,7.16v-.512l.024.535V138.377a17.215,17.215,0,0,1,.467-4.822c.779-3.75,6.869-8.614,10.766-8.379,1.978.117,9.187,1.45,9.135,9.313v28.456a30.973,30.973,0,0,0,.117,3.578c.931,4.16,3.894,7.242,10.98,7.16l.188-29.839v-5.06C166.985,132.638,165.589,125.9,160.005,122.823Z"/><path class="a" d="M229.5,122.952a5.3,5.3,0,1,1-5.3-5.294A5.315,5.315,0,0,1,229.5,122.952Zm-9.959,0a4.664,4.664,0,1,0,4.664-4.664A4.681,4.681,0,0,0,219.544,122.952Zm2.73-2.886h2.018c.42,0,1.934,0,1.934,1.429a1.358,1.358,0,0,1-1.065,1.373c.588.141.783.393.867,1.093a8.242,8.242,0,0,0,.336,1.793h-.812a7.209,7.209,0,0,1-.28-1.484c-.084-.87-.308-1.093-1.232-1.093h-.98v2.577h-.786Zm.786,2.438h1.232c.393,0,1.121,0,1.121-.868,0-.9-.7-.9-1.121-.9H223.06Z"/></g></svg>