<svg xmlns="http://www.w3.org/2000/svg" viewBox="0 0 187.5 30.74"><defs><style>.cls-1{fill:#54585a;}</style></defs><g id="Layer_2" data-name="Layer 2"><g id="Layer_1-2" data-name="Layer 1"><path class="cls-1" d="M2.24.49H0V30.21H2.24Z"/><path class="cls-1" d="M113.89,28.19H94.46V16.26h17.28v-2H94.46V2.55h19.22v-2H92.22V30.23h21.67Z"/><path class="cls-1" d="M143.58,30.23V.51h-2.15V26.37L120.61.51H118.5V30.23h2.16V3.82L141.9,30.23Z"/><path class="cls-1" d="M151.56.51h-2.24V30.23h2.24Z"/><path class="cls-1" d="M182.25.51h-2.63L169.36,13.63,159.06.51h-2.67l11.55,14.56L156,30.23h2.63l10.69-13.71L180,30.23h2.67l-12-15.16Z"/><path class="cls-1" d="M60.6,30.21,46.55.51H44.4l-14,29.7h2.33L45.43,2.91,53.36,20H39.3l-.89,2h15.9l3.84,8.26Z"/><path class="cls-1" d="M87.26,26.29V14.82H75v2H85.1v8.53a15.63,15.63,0,0,1-9.61,3.4c-8.06,0-12.93-5.73-12.93-13.42v-.08C62.56,8.11,67.69,2,75,2a13.74,13.74,0,0,1,9.7,3.56l1.47-1.65A16,16,0,0,0,75.14,0c-9,0-14.91,7.35-14.91,15.37v.09c0,8.36,5.65,15.28,15.17,15.28A18.33,18.33,0,0,0,87.25,26.3"/><path class="cls-1" d="M18.89,14.24c-7.15-1.44-8.79-3.35-8.79-6.49V7.66c0-3.1,2.93-5.6,7.37-5.6a13.07,13.07,0,0,1,9,3.35L27.9,3.67A15.19,15.19,0,0,0,17.55.06c-5.6,0-9.69,3.4-9.69,7.82V8c0,4.5,2.93,6.92,10.17,8.36,6.85,1.37,8.53,3.18,8.53,6.33v.09c0,3.39-3.1,5.9-7.63,5.9s-7.49-1.41-10.81-4.42L6.65,25.88A17.38,17.38,0,0,0,18.8,30.64c5.8,0,10-3.31,10-8.11v-.09c0-4.33-2.93-6.79-9.91-8.19"/><path class="cls-1" d="M186.19,28.9h-.34v-.45h.34c.18,0,.29.08.29.23S186.37,28.9,186.19,28.9Zm.56-.25c0-.28-.23-.43-.53-.43h-.65v1.37h.27v-.47h.29l.32.47h.33l-.38-.52a.38.38,0,0,0,.24-.15.38.38,0,0,0,.08-.27"/><path class="cls-1" d="M187.34,28.93a1.13,1.13,0,0,1-.08.48,1.06,1.06,0,0,1-.26.41,1.09,1.09,0,0,1-.4.27,1.12,1.12,0,0,1-.48.1,1.15,1.15,0,0,1-.48-.1,1.09,1.09,0,0,1-.4-.27,1.19,1.19,0,0,1-.26-.41,1.31,1.31,0,0,1-.08-.48,1.2,1.2,0,0,1,.36-.86,1.24,1.24,0,0,1,1.33-.26,1.31,1.31,0,0,1,.4.26,1.27,1.27,0,0,1,.26.39,1.25,1.25,0,0,1,.09.46Zm-1.22-1.37a1.37,1.37,0,0,0-1,.4,1.37,1.37,0,0,0-.3,1.48,1.43,1.43,0,0,0,.3.44,1.51,1.51,0,0,0,.45.29,1.31,1.31,0,0,0,.52.11,1.4,1.4,0,0,0,.53-.11,1.51,1.51,0,0,0,.45-.29,1.6,1.6,0,0,0,.29-.44,1.28,1.28,0,0,0,0-1,1.4,1.4,0,0,0-.29-.44,1.51,1.51,0,0,0-.45-.29,1.4,1.4,0,0,0-.53-.11"/></g></g></svg>