<svg xmlns="http://www.w3.org/2000/svg" viewBox="0 -2 985 265"><rect y="168.06" width="984.88" height="8.23" style="fill:#53b7e8"></rect><path d="M165.72,252.59c-4,5.49-9.41,7.69-15.57,7.69-12.78,0-21.67-9.3-21.67-22.17S137.37,216,150.15,216c5.69,0,10.78,1.9,14.45,6.61l-3.2,2.68a13.36,13.36,0,0,0-11.25-5.72c-11,0-17.76,8.1-17.76,18.59s6.8,18.59,17.76,18.59a15.07,15.07,0,0,0,12.37-6.55Z"></path><path d="M208.39,256.7c11,0,17.76-8.1,17.76-18.59s-6.81-18.59-17.76-18.59-17.76,8.1-17.76,18.59,6.8,18.59,17.76,18.59m0-40.75c12.79,0,21.66,9.29,21.66,22.16s-8.87,22.17-21.66,22.17-21.67-9.29-21.67-22.17S195.6,216,208.39,216"></path><path d="M256.5,251.4a10.55,10.55,0,0,0,9.58,5.3c5.28,0,9.42-3.21,9.42-8.28,0-11.8-21.61-4.88-21.61-20.92,0-7.5,6.39-11.55,13.44-11.55,4.56,0,8.58,1.55,11.42,5.3l-3.37,2.44a9.37,9.37,0,0,0-8.17-4.17c-5,0-9.41,2.63-9.41,8,0,12.7,21.61,5.07,21.61,20.92,0,7.63-6.22,11.86-13,11.86-5.51,0-10.36-1.79-13.61-6.38Z"></path><polygon points="304.43 217.02 310.29 217.02 325.57 252.41 340.84 217.02 346.41 217.02 346.41 259.21 342.5 259.21 342.5 222.03 342.38 222.03 326.4 259.21 324.68 259.21 308.46 222.03 308.34 222.03 308.34 259.21 304.43 259.21 304.43 217.02"></polygon><polygon points="374.03 217.02 399.66 217.02 399.66 220.6 377.94 220.6 377.94 235.61 398.3 235.61 398.3 239.19 377.94 239.19 377.94 255.63 400.62 255.63 400.62 259.21 374.03 259.21 374.03 217.02"></polygon><path d="M460.21,252.59c-4,5.49-9.41,7.69-15.57,7.69-12.79,0-21.67-9.3-21.67-22.17S431.85,216,444.64,216c5.69,0,10.78,1.9,14.45,6.61l-3.2,2.68a13.33,13.33,0,0,0-11.25-5.72c-10.95,0-17.76,8.1-17.76,18.59s6.81,18.59,17.76,18.59A15.07,15.07,0,0,0,457,250.15Z"></path><polygon points="483.93 217.02 509.57 217.02 509.57 220.6 487.84 220.6 487.84 235.61 508.21 235.61 508.21 239.19 487.84 239.19 487.84 255.63 510.51 255.63 510.51 259.21 483.93 259.21 483.93 217.02"></polygon><path d="M565.38,243.06c0,9-3.85,17.22-15.28,17.22s-15.27-8.22-15.27-17.22V217h3.91v25c0,6,1.6,14.66,11.36,14.66s11.37-8.64,11.37-14.66V217h3.91Z"></path><polygon points="601.95 220.59 587.62 220.59 587.62 217.02 620.18 217.02 620.18 220.59 605.85 220.59 605.85 259.21 601.95 259.21 601.95 220.59"></polygon><rect x="643.19" y="217.02" width="3.91" height="42.19"></rect><path d="M709.66,252.59c-4,5.49-9.41,7.69-15.57,7.69-12.78,0-21.66-9.3-21.66-22.17S681.31,216,694.09,216c5.69,0,10.78,1.9,14.45,6.61l-3.2,2.68a13.33,13.33,0,0,0-11.25-5.72c-11,0-17.76,8.1-17.76,18.59s6.81,18.59,17.76,18.59a15.07,15.07,0,0,0,12.38-6.55Z"></path><path d="M748.07,221.31l-9.77,23.12h19.24ZM746.23,217h4l17.65,42.19h-4.38L759,248h-22.2L732,259.21h-4.08Z"></path><polygon points="790.5 217.02 794.4 217.02 794.4 255.63 813.94 255.63 813.94 259.21 790.5 259.21 790.5 217.02"></polygon><path d="M837.78,251.4a10.56,10.56,0,0,0,9.59,5.3c5.27,0,9.42-3.21,9.42-8.28,0-11.8-21.61-4.88-21.61-20.92,0-7.5,6.39-11.55,13.44-11.55,4.56,0,8.58,1.55,11.42,5.3l-3.37,2.44a9.39,9.39,0,0,0-8.17-4.17c-5,0-9.41,2.63-9.41,8,0,12.7,21.6,5.07,21.6,20.92,0,7.63-6.21,11.86-13,11.86-5.51,0-10.36-1.79-13.62-6.38Z"></path><path d="M126.51,122.24c15.45-.53,19.35-4.47,19.35-11.79V13.94c0-7.15-3.9-11.26-19.35-11.8V0h103L230,40.21l-2.48.36C217.25,15.19,209.08,3.4,188,3.4H166.64V58.26h9.59c14.74,0,22.55-5.54,27.35-24.48h2.31V86.14h-2.31C198.78,67.2,191,61.66,176.23,61.66h-9.59v59.51h21c24.86,0,34.27-12,45.1-39.32l2.49.18-.9,42.53H126.51Z"></path><path d="M267.31,122.24c15.45-.53,19.36-4.47,19.36-11.79V13.94c0-7.15-3.91-11.26-19.36-11.8V0h58.42V2.14c-16.16.54-18.29,4.29-18.29,11.8V121.17h13.85c24.5,0,34.8-8.4,46.88-38.6l2.48.17-1.77,41.82H267.31Z"></path><path d="M399.23,122.24c16.15-.53,19.89-4.47,19.89-11.79V13.94c0-7.15-3.74-11.26-19.89-11.8V0H459.6V2.14c-16.16.54-19.89,4.65-19.89,11.8v96.51c0,7.32,3.73,11.26,19.89,11.79v2.32H399.23Z"></path><path d="M579.45,25c9-12.86,6.21-21.27-8.53-22.87V0H616V2.15c-13.67,2.14-19.53,7.32-33.73,26.63l-19.54,26.8,33.74,51.65c6.22,9.29,9.59,12.51,24.15,15v2.33H562.22v-2.33c16.51-1.07,17-5.9,11.19-15.19L549.79,68.63,528,99.72c-9.05,12.87-5.86,21.09,8.52,22.52v2.33H491.19v-2.33c13.68-2,19.18-5.9,33.92-26.27L547.3,65.23,516.23,17.52c-6.39-10-9.59-12.87-24.5-15.37V0h58.59V2.15c-15.26.71-16.87,6.61-11,15.9l21.13,34Z"></path><path d="M649.56,122.24c16.16-.53,19.89-4.47,19.89-11.79V13.94c0-7.15-3.73-11.26-19.89-11.8V0h60.38V2.14c-16.16.54-19.89,4.65-19.89,11.8v96.51c0,7.32,3.73,11.26,19.89,11.79v2.32H649.56Z"></path><path d="M795.69,60.23c23.79,0,28.77-10.19,28.77-29.13,0-17-7.11-27.7-31.07-27.7H780.78V60.23Zm-14.91,50.22c0,7.68,3.73,11.26,18.64,11.79v2.32H740.65v-2.32c15.44-.53,19.35-4.46,19.35-11.79V13.94c0-7.15-3.91-11.26-19.35-11.79V0h55.93C833.16,0,847,13.41,847,30.2c0,15.37-10.3,27.35-37.65,31.46v.54c26.28.89,32.5,12.68,35,30.73l1.25,10.19c2.49,15.9,5.33,18,20.6,18.23v2.14a80.74,80.74,0,0,1-18.29,2c-19.18,0-22.73-6.62-24.51-22.7l-1.77-16.44c-2-18-6.75-22.7-27.35-22.7H780.78Z"></path></svg>